<svg id="Capa_1" enable-background="new 0 0 512 512" height="512" viewBox="0 0 512 512" width="512" xmlns="http://www.w3.org/2000/svg"><g><path d="m512 114v82c0 8.28-6.72 15-15 15h-482c-8.28 0-15-6.72-15-15v-82c0-24.81 20.19-45 45-45h422c24.81 0 45 20.19 45 45z" fill="#e27a4e"/><path d="m512 114v82c0 8.28-6.72 15-15 15h-241v-142h211c24.81 0 45 20.19 45 45z" fill="#dc455b"/><path d="m512 196v250c0 24.81-20.19 45-45 45h-422c-24.81 0-45-20.19-45-45v-250z" fill="#f4f4f6"/><path d="m512 196v250c0 24.81-20.19 45-45 45h-211v-295z" fill="#e2dff4"/><path d="m128 21c-8.284 0-15 6.716-15 15v96c0 8.284 6.716 15 15 15s15-6.716 15-15v-96c0-8.284-6.716-15-15-15z" fill="#f4f4f6"/><path d="m384 21c-8.284 0-15 6.716-15 15v96c0 8.284 6.716 15 15 15s15-6.716 15-15v-96c0-8.284-6.716-15-15-15z" fill="#e2dff4"/><path d="m271 36v96c0 8.28-6.72 15-15 15s-15-6.72-15-15v-96c0-8.28 6.72-15 15-15s15 6.72 15 15z" fill="#f4f4f6"/><path d="m256 147v-126c8.28 0 15 6.72 15 15v96c0 8.28-6.72 15-15 15z" fill="#e2dff4"/><path d="m104 253h-16c-8.284 0-15 6.716-15 15s6.716 15 15 15h16c8.284 0 15-6.716 15-15s-6.716-15-15-15z" fill="#e2dff4"/><path d="m344 253h-16c-8.284 0-15 6.716-15 15s6.716 15 15 15h16c8.284 0 15-6.716 15-15s-6.716-15-15-15z" fill="#bebcdd"/><path d="m184 253h-16c-8.284 0-15 6.716-15 15s6.716 15 15 15h16c8.284 0 15-6.716 15-15s-6.716-15-15-15z" fill="#e2dff4"/><path d="m424 253h-16c-8.284 0-15 6.716-15 15s6.716 15 15 15h16c8.284 0 15-6.716 15-15s-6.716-15-15-15z" fill="#00da80"/><path d="m279 268c0 8.28-6.72 15-15 15h-16c-8.28 0-15-6.72-15-15s6.72-15 15-15h16c8.28 0 15 6.72 15 15z" fill="#e2dff4"/><path d="m279 268c0 8.28-6.72 15-15 15h-8v-30h8c8.28 0 15 6.72 15 15z" fill="#bebcdd"/><path d="m105 318h-16c-8.284 0-15 6.716-15 15s6.716 15 15 15h16c8.284 0 15-6.716 15-15s-6.716-15-15-15z" fill="#e2dff4"/><path d="m345 318h-16c-8.284 0-15 6.716-15 15s6.716 15 15 15h16c8.284 0 15-6.716 15-15s-6.716-15-15-15z" fill="#bebcdd"/><path d="m184 317h-16c-8.284 0-15 6.716-15 15s6.716 15 15 15h16c8.284 0 15-6.716 15-15s-6.716-15-15-15z" fill="#e2dff4"/><path d="m424 317h-16c-8.284 0-15 6.716-15 15s6.716 15 15 15h16c8.284 0 15-6.716 15-15s-6.716-15-15-15z" fill="#00da80"/><path d="m279 332c0 8.28-6.72 15-15 15h-16c-8.28 0-15-6.72-15-15s6.72-15 15-15h16c8.28 0 15 6.72 15 15z" fill="#e2dff4"/><path d="m279 332c0 8.28-6.72 15-15 15h-8v-30h8c8.28 0 15 6.72 15 15z" fill="#bebcdd"/><path d="m104 381h-16c-8.284 0-15 6.716-15 15s6.716 15 15 15h16c8.284 0 15-6.716 15-15s-6.716-15-15-15z" fill="#e2dff4"/><path d="m184 381h-16c-8.284 0-15 6.716-15 15s6.716 15 15 15h16c8.284 0 15-6.716 15-15s-6.716-15-15-15z" fill="#e2dff4"/><path d="m344 381h-16c-8.284 0-15 6.716-15 15s6.716 15 15 15h16c8.284 0 15-6.716 15-15s-6.716-15-15-15z" fill="#bebcdd"/><path d="m279 396c0 8.28-6.72 15-15 15h-16c-8.28 0-15-6.72-15-15s6.72-15 15-15h16c8.28 0 15 6.72 15 15z" fill="#e2dff4"/><path d="m279 396c0 8.28-6.72 15-15 15h-8v-30h8c8.28 0 15 6.72 15 15z" fill="#bebcdd"/><path d="m424 381h-16c-8.284 0-15 6.716-15 15s6.716 15 15 15h16c8.284 0 15-6.716 15-15s-6.716-15-15-15z" fill="#00da80"/></g></svg>