<svg height="512" viewBox="0 0 64 64" width="512" xmlns="http://www.w3.org/2000/svg"><g id="mobile-data-graph-chart-search"><rect fill="#e8e5fb" height="58" rx="2" width="36" x="6" y="3"/><path d="m6 9h36v44h-36z" fill="#2488ff"/><path d="m15 45h4v4h-4z" fill="#f6cc4f"/><path d="m22 43h4v6h-4z" fill="#f6cc4f"/><path d="m29 40h4v9h-4z" fill="#f6cc4f"/><path d="m46 45v13a3 3 0 0 1 -6 0v-13z" fill="#3e3d42"/><path d="m41 39h4v6h-4z" fill="#787680"/><circle cx="43" cy="26" fill="#bdfdff" r="15"/><path d="m40 49h6v3h-6z" fill="#e8e5fb"/><path d="m22 56h4v2h-4z" fill="#5bcbfa"/><path d="m38.241 24.35-6 7 1.518 1.3 5.464-6.372 6.282 3.59a1 1 0 0 0 1.249-.21l3.7-4.23 1.423 1.246 1.123-5.674-5.475 1.865 1.424 1.246-3.163 3.615-6.286-3.594a1 1 0 0 0 -1.259.218z" fill="#ec455a"/><path d="m33 26a10.011 10.011 0 0 1 10-10v-2a12.013 12.013 0 0 0 -12 12z" fill="#fff"/><g fill="#1a6fb0"><path d="m11 14h6v2h-6z"/><path d="m11 18h14v2h-14z"/><path d="m11 22h4v2h-4z"/><path d="m17 22h8v2h-8z"/></g><path d="m12 48h24v2h-24z" fill="#f3ac3c"/></g></svg>