<svg id="Capa_1" enable-background="new 0 0 512 512" height="512" viewBox="0 0 512 512" width="512" xmlns="http://www.w3.org/2000/svg"><g><path d="m512 256c0 141.385-114.615 256-256 256s-256-114.615-256-256 114.615-256 256-256 256 114.615 256 256z" fill="#ffc14f"/><path d="m459.913 207.115c0 97.202-78.798 176-176 176s-176-78.798-176-176 78.798-176 176-176 176 78.798 176 176z" fill="#ffcd71"/><path d="m447.363 432.885c0 8.267-8.954 14.969-20 14.969s-20-6.702-20-14.969 8.954-14.969 20-14.969c1.727 0 3.402.164 5 .472v-52.865c0-4.134 3.358-7.485 7.5-7.485s7.5 3.351 7.5 7.485c0-.001 0 66.898 0 67.362z" fill="#126e66"/><path d="m379.751 370.191c-7.14 2.109-14.633-1.959-16.735-9.086-9.094-30.834-41.626-48.496-72.518-39.371l-94.811 28.005c-7.14 2.109-14.633-1.959-16.735-9.086s1.982-14.614 9.123-16.723l94.811-28.005c45.15-13.336 92.696 12.477 105.987 57.542 2.102 7.128-1.982 14.615-9.122 16.724z" fill="#147d73"/><path d="m210 33.994v11.656c0 1.782-1.184 3.349-2.901 3.838l-52.099 14.856v49.922s-.245 5.795-.685 6.748c-2.628 8.228-12.517 14.345-24.315 14.345-13.807 0-25-8.378-25-18.712s11.193-18.712 25-18.712c3.556 0 6.938.556 10 1.557v-36.47c0-.164.006-.326.016-.487.339-8.35 6.006-15.592 14.115-17.904l50.77-14.476c2.555-.727 5.099 1.187 5.099 3.839z" fill="#453d83"/><path d="m210 33.994v76.416c0 8.267-8.954 14.969-20 14.969s-20-6.702-20-14.969 8.954-14.969 20-14.969c1.727 0 3.402.164 5 .472v-42.975l-12.743 3.634c-6.143 1.751-12.257-2.851-12.257-9.226 0-4.284 2.846-8.049 6.974-9.226l27.927-7.963c2.555-.73 5.099 1.185 5.099 3.837z" fill="#51489a"/><path d="m41.346 323.819c3.237 7.626-.321 16.432-7.947 19.669l-9.205 3.907c-2.272.965-4.65 1.326-6.953 1.156-3.331-8.587-6.212-17.398-8.614-26.405 1.126-.955 2.414-1.759 3.845-2.366l9.205-3.907c7.626-3.238 16.432.32 19.669 7.946zm469.458-199.273c-3.237-7.626-12.043-11.184-19.669-7.947l-9.205 3.907c-7.626 3.237-11.184 12.043-7.947 19.669 3.237 7.626 12.043 11.184 19.669 7.947l9.205-3.907c7.626-3.237 11.184-12.043 7.947-19.669z" fill="#199a8e"/><path d="m364.571 284.241-79.271 59.057c-25.829 19.242-31.196 55.858-11.964 81.621 4.445 5.955 3.209 14.388-2.761 18.836s-14.413 3.226-18.858-2.729c-28.108-37.655-20.264-91.17 17.486-119.293l79.271-59.057c5.97-4.448 14.413-3.226 18.858 2.729s3.209 14.389-2.761 18.836z" fill="#199a8e"/><path d="m243.553 249.937c23.738 55.922-2.353 120.499-58.275 144.236s-120.499-2.353-144.236-58.275c-23.738-55.922 2.353-120.498 58.275-144.236s120.498 2.353 144.236 58.275zm241.172-102.371c-23.737-55.922-88.314-82.013-144.236-58.275s-82.013 88.314-58.275 144.236 88.314 82.013 144.236 58.275 82.012-88.314 58.275-144.236z" fill="#126e66"/><path d="m137.395 191.794c30.503-12.948 65.726 1.284 78.674 31.786s-1.284 65.726-31.786 78.674-65.726-1.284-78.674-31.786 1.284-65.726 31.786-78.674zm209.386-23.697c12.948 30.503 48.171 44.734 78.674 31.786s44.734-48.171 31.786-78.674-48.171-44.734-78.674-31.786c-30.502 12.947-44.733 48.171-31.786 78.674z" fill="#168c80"/><path d="m498.533 141.705c-26.931-63.446-100.459-93.153-163.905-66.222-36.142 15.341-61.335 45.803-71.347 80.908-11.724-2.465-23.898-1.304-35.149 3.472s-20.542 12.727-26.913 22.873c-32.208-17.184-71.622-20.222-107.764-4.881-63.445 26.931-93.152 100.458-66.221 163.904s100.459 93.153 163.905 66.222 93.153-100.458 66.222-163.904c-7.384-17.395-18.27-32.253-31.491-44.104 3.139-5.586 8-9.954 13.984-12.494 5.985-2.54 12.503-3.002 18.702-1.38-.659 17.742 2.467 35.895 9.85 53.29 26.931 63.446 100.459 93.153 163.905 66.222 63.446-26.933 93.153-100.46 66.222-163.906zm-267.12 183.999-127.437 54.094c-6.655-2.933-12.979-6.625-18.831-11.018l151.424-64.275c-.905 7.26-2.643 14.374-5.156 21.199zm5.342-43.006-167.425 71.068c-3.771-4.517-7.159-9.436-10.092-14.728l173.933-73.83c1.769 5.785 2.954 11.639 3.584 17.49zm-185.332 37.93c-1.769-5.786-2.954-11.639-3.584-17.49l167.426-71.068c3.771 4.517 7.158 9.436 10.091 14.728zm1.758-60.496 127.437-54.094c6.655 2.933 12.979 6.625 18.831 11.018l-151.423 64.276c.905-7.261 2.642-14.376 5.155-21.2zm51.997-54.662c14.019-5.951 28.686-8.262 42.941-7.364l-78.068 33.138c9.257-10.879 21.108-19.824 35.127-25.774zm74.239 174.896c-14.019 5.951-28.686 8.263-42.941 7.364l78.068-33.138c-9.257 10.879-21.108 19.823-35.127 25.774zm146.901-113.958 151.423-64.275c-.905 7.261-2.643 14.375-5.156 21.2l-127.437 54.094c-6.654-2.934-12.979-6.626-18.83-11.019zm-25.908-29.742 173.933-73.83c1.769 5.786 2.954 11.639 3.584 17.49l-167.426 71.068c-3.771-4.517-7.158-9.436-10.091-14.728zm-6.056-78.906 127.437-54.094c6.655 2.933 12.979 6.625 18.831 11.018l-151.424 64.276c.905-7.261 2.643-14.376 5.156-21.2zm-5.343 43.006 167.426-71.068c3.771 4.517 7.158 9.436 10.092 14.728l-173.933 73.83c-1.769-5.785-2.954-11.639-3.585-17.49zm57.339-97.668c14.019-5.951 28.686-8.263 42.941-7.364l-78.068 33.138c9.257-10.879 21.108-19.823 35.127-25.774zm74.239 174.896c-14.019 5.951-28.685 8.262-42.941 7.364l78.068-33.138c-9.257 10.879-21.108 19.823-35.127 25.774z" fill="#20b7a1"/><path d="m238.958 454.837-15.107 8.245c-.336.183-.612.459-.796.794l-8.267 15.085c-.759 1.385-2.749 1.385-3.508 0l-8.267-15.085c-.184-.335-.46-.611-.796-.794l-15.106-8.245c-1.389-.758-1.389-2.753 0-3.511l15.106-8.245c.336-.183.612-.459.796-.794l8.267-15.085c.759-1.385 2.749-1.385 3.508 0l8.267 15.085c.184.335.46.611.796.794l15.107 8.245c1.389.758 1.389 2.753 0 3.511zm160-269.674-15.107-8.245c-.336-.183-.612-.459-.796-.794l-8.267-15.085c-.759-1.385-2.749-1.385-3.508 0l-8.267 15.085c-.184.335-.46.611-.796.794l-15.106 8.245c-1.389.758-1.389 2.753 0 3.511l15.106 8.245c.336.183.612.459.796.794l8.267 15.085c.759 1.385 2.749 1.385 3.508 0l8.267-15.085c.184-.335.46-.611.796-.794l15.107-8.245c1.389-.758 1.389-2.753 0-3.511zm-270 70-15.106-8.245c-.336-.183-.612-.459-.796-.794l-8.267-15.085c-.759-1.385-2.749-1.385-3.508 0l-8.267 15.085c-.184.335-.46.611-.796.794l-15.107 8.245c-1.389.758-1.389 2.753 0 3.511l15.107 8.245c.336.183.612.459.796.794l8.267 15.085c.759 1.385 2.749 1.385 3.508 0l8.267-15.085c.184-.335.46-.611.796-.794l15.106-8.245c1.389-.758 1.389-2.753 0-3.511z" fill="#fff5f5"/></g></svg>