<svg id="Layer_1" enable-background="new 0 0 512 512" height="512" viewBox="0 0 512 512" width="512" xmlns="http://www.w3.org/2000/svg"><path d="m174.654 48.527c-18.573-5.61-25.3-6.608-34.94-6.608-45.523 0-82.559 37.003-82.559 82.486 0 24.093 9.772 46.34 27.517 62.641l6.274 5.765 91.32-32.084 2.737-109.074z" fill="#e7dfdd"/><path d="m337.346 48.527c18.573-5.61 25.3-6.608 34.94-6.608 45.523 0 82.559 37.003 82.559 82.486 0 24.093-9.772 46.34-27.517 62.641l-6.274 5.765-91.32-32.084-2.737-109.074z" fill="#dad0cb"/><path d="m163.405 157.669c-9.712-4.677-20.136-7.049-30.982-7.049-39.378 0-71.415 32.007-71.415 71.349s32.037 71.35 71.415 71.35c13.14 0 25.99-3.6 37.162-10.411l7.604-4.635-5.756-116.738z" fill="#f4f1f1"/><path d="m378.929 150.282c-10.846 0-21.27 2.372-30.982 7.05l-8.028 3.866-5.756 116.736 7.604 4.636c11.172 6.811 24.022 10.412 37.163 10.412 39.378 0 71.415-32.008 71.415-71.35s-32.038-71.35-71.416-71.35z" fill="#e7dfdd"/><path d="m512 457.304v9.767c0 24.776-20.21 44.929-45.06 44.929h-44.84v-47.935c0-8.269-6.71-14.98-15-14.98-8.28 0-15 6.711-15 14.98v47.935h-272.2v-47.935c0-8.269-6.72-14.98-15-14.98-8.29 0-15 6.711-15 14.98v47.935h-44.84c-24.85 0-45.06-20.153-45.06-44.929v-9.767c0-56.664 46.27-102.771 103.13-102.771h11.7l141.17 29.959 138.44-29.96h14.43c56.86 0 103.13 46.108 103.13 102.772z" fill="#ace233"/><path d="m512 457.304v9.767c0 24.776-20.21 44.929-45.06 44.929h-44.84v-47.935c0-8.269-6.71-14.98-15-14.98-8.28 0-15 6.711-15 14.98v47.935h-136.1v-127.508l138.44-29.96h14.43c56.86 0 103.13 46.108 103.13 102.772z" fill="#00cb75"/><path d="m394.44 354.532-98.08 111.56-40.36.04-41.08.05-100.09-111.65z" fill="#f4f1f1"/><path d="m394.44 354.532-98.08 111.56-40.36.04v-111.6z" fill="#e7dfdd"/><path d="m296.36 466.092-40.36 45.908-41.08-45.818 16.26-88.511h47.9z" fill="#ff405c"/><path d="m279.08 377.671 17.28 88.421-40.36 45.908v-134.329z" fill="#ff0600"/><path d="m295.12 326.21v33.695c0 21.521-17.52 38.967-39.12 38.967-10.8 0-20.58-4.364-27.66-11.415s-11.46-16.797-11.46-27.553v-33.694z" fill="#ff8659"/><path d="m295.12 326.21v33.695c0 21.521-17.52 38.967-39.12 38.967v-72.662z" fill="#ff405c"/><path d="m369.93 114.046v120.697c0 62.646-51.09 113.617-113.93 113.717h-.19c-62.92 0-114.11-51.011-114.11-113.717l-.05-120.607c-.03-30.469 11.83-59.13 33.39-80.701 21.56-21.561 50.24-33.435 80.75-33.435h.21c62.84.11 113.94 51.231 113.93 114.046z" fill="#ffe0d9"/><path d="m307.58 234.254v3.475c0 5.523-4.48 9.987-10 9.987h-83.16c-5.52 0-10-4.464-10-9.987v-3.475c0-28.412 23.14-51.521 51.58-51.521s51.58 23.109 51.58 51.521z" fill="#2a5959"/><path d="m256 348.46v-348.46c62.84.11 113.94 51.231 113.93 114.046v120.697c0 62.646-51.09 113.618-113.93 113.717z" fill="#fcc7be"/><path d="m307.58 234.254v3.475c0 5.523-4.48 9.987-10 9.987h-41.58v-64.982c28.44 0 51.58 23.108 51.58 51.52z" fill="#2b4747"/></svg>