<svg id="Capa_1" enable-background="new 0 0 512 512" height="512" viewBox="0 0 512 512" width="512" xmlns="http://www.w3.org/2000/svg"><g><g><path d="m497 496h-482c-8.291 0-15-6.709-15-15v-330c0-8.291 6.709-15 15-15h151c8.291 0 15 6.709 15 15v15h150v-15c0-8.291 6.709-15 15-15h151c8.291 0 15 6.709 15 15v330c0 8.291-6.709 15-15 15z" fill="#9ef"/></g><path d="m512 481v-330c0-8.291-6.709-15-15-15h-151c-8.291 0-15 6.709-15 15v15h-75v330h241c8.291 0 15-6.709 15-15z" fill="#80bfff"/><path d="m30 166h452v300h-452z" fill="#e6f7ff"/><path d="m482 466v-300h-151-75v300z" fill="#cef"/><g><path d="m346 196h-180c-8.291 0-15-6.709-15-15v-60c0-8.291 6.709-15 15-15h15v-15c0-41.353 33.633-75 75-75s75 33.647 75 75v15h15c8.291 0 15 6.709 15 15v60c0 8.291-6.709 15-15 15z" fill="#61729b"/></g><path d="m346 196c8.291 0 15-6.709 15-15v-60c0-8.291-6.709-15-15-15h-15v-15c0-41.353-33.633-75-75-75v180z" fill="#47568c"/><g id="Strategy_3_"><g><path d="m397.211 391 19.395-19.395c5.859-5.859 5.859-15.352 0-21.211s-15.352-5.859-21.211 0l-19.395 19.395-19.395-19.395c-5.859-5.859-15.352-5.859-21.211 0s-5.859 15.352 0 21.211l19.395 19.395-19.395 19.395c-5.859 5.859-5.859 15.352 0 21.211s15.351 5.86 21.211 0l19.395-19.395 19.395 19.395c5.859 5.859 15.351 5.86 21.211 0 5.859-5.859 5.859-15.352 0-21.211z" fill="#f69"/><path d="m206.605 230.395c-5.859-5.859-15.352-5.859-21.211 0l-19.394 19.394-19.395-19.395c-5.859-5.859-15.352-5.859-21.211 0s-5.859 15.352 0 21.211l19.395 19.395-19.395 19.395c-5.859 5.859-5.859 15.352 0 21.211s15.351 5.86 21.211 0l19.395-19.395 19.395 19.395c5.859 5.859 15.351 5.86 21.211 0 5.859-5.859 5.859-15.352 0-21.211l-19.395-19.395 19.395-19.395c5.859-5.859 5.859-15.351-.001-21.21z" fill="#f9b"/></g><g><circle cx="256" cy="91" fill="#fff" r="15"/></g></g><path d="m271 91c0-8.286-6.716-15-15-15v30c8.284 0 15-6.716 15-15z" fill="#dfe7f4"/><path d="m436 271c0 5.099-2.401 9.6-6.599 12.599l-45 30c-2.701 1.5-5.402 2.401-8.401 2.401-4.799 0-9.6-2.401-12.599-6.601-4.501-6.899-2.701-16.199 4.199-21l3.9-2.399h-85.5c-8.401 0-15 6.599-15 15v60c0 13.2-5.7 25.199-15 33.3-7.8 7.2-18.3 11.7-30 11.7h-90c-8.401 0-15-6.601-15-15 0-8.401 6.599-15 15-15h90c8.401 0 15-6.601 15-15v-60c0-13.2 5.7-25.201 15-33.3l.3-.3c2.264-1.888 13.189-11.4 29.7-11.4h85.499l-3.9-2.401c-6.899-4.799-8.699-14.099-4.199-21 4.799-6.899 14.099-8.699 21-4.2l45 30c4.199 3.001 6.6 7.5 6.6 12.601z" fill="#61729b"/><path d="m436 271c0 5.099-2.401 9.6-6.599 12.599l-45 30c-2.701 1.5-5.402 2.401-8.401 2.401-4.799 0-9.6-2.401-12.599-6.601-4.501-6.899-2.701-16.199 4.199-21l3.9-2.399h-85.5c-8.401 0-15 6.599-15 15v60c0 13.2-5.7 25.199-15 33.3v-126.6l.3-.3c2.264-1.888 13.189-11.4 29.7-11.4h85.499l-3.9-2.401c-6.899-4.799-8.699-14.099-4.199-21 4.799-6.899 14.099-8.699 21-4.2l45 30c4.199 3.001 6.6 7.5 6.6 12.601z" fill="#47568c"/><g><path d="m106 436c-24.814 0-45-20.186-45-45s20.186-45 45-45 45 20.186 45 45-20.186 45-45 45z" fill="#97de3d"/></g></g></svg>