<svg id="Capa_1" enable-background="new 0 0 511.979 511.979" height="512" viewBox="0 0 511.979 511.979" width="512" xmlns="http://www.w3.org/2000/svg"><g><path d="m84.668 511.979h342.643c11.363 0 20.608-9.245 20.608-20.608v-19.612c0-4.142-3.357-7.5-7.5-7.5s-7.5 3.358-7.5 7.5v19.612c0 3.092-2.516 5.608-5.608 5.608h-42.507v-66.163c0-4.142-3.357-7.5-7.5-7.5s-7.5 3.358-7.5 7.5v66.163h-227.629v-66.163c0-4.142-3.357-7.5-7.5-7.5s-7.5 3.358-7.5 7.5v66.163h-42.507c-3.093 0-5.608-2.516-5.608-5.608v-71.068c0-28.91 20.509-47.871 34.333-53.591l55.758-21.777c8.655 15.33 54.094 95.807 73.029 129.343 6.071 10.751 21.545 10.758 27.617-.002 2.935-5.2 68.477-121.328 72.92-129.2 58.204 22.541 55.967 21.533 59.046 23.099 15.508 8.083 31.156 27.337 31.156 52.128v16.456c0 4.142 3.357 7.5 7.5 7.5s7.5-3.358 7.5-7.5v-16.456c0-33.204-21.129-55.999-39.289-65.464-4.096-2.084 2.414.603-105.227-41.075l-.016-19.59c17.179-12.574 29.077-31.932 31.735-54.099 13-1.139 24.63-8.586 30.422-20.227-.906 10.927 7.711 20.69 19.098 20.69h21.175c12.555 0 21.717-11.863 18.53-24.014v.001l-8.696-33.176c1.874-3.361 2.946-7.227 2.946-11.34 0-10.261-6.652-18.993-15.867-22.126v-69.253-.001c-.001-6.541-3.632-12.423-9.479-15.353h-.001l-124.104-62.181c-8.238-4.127-18.074-4.127-26.312 0l-124.106 62.181c-5.848 2.93-9.479 8.813-9.479 15.354s3.633 12.423 9.48 15.354l33.741 16.906v62.13c0 1.758.174 3.486.49 5.17-6.411 6.797-10.139 15.675-10.139 24.58 0 18.063 14.473 33.647 34.031 35.313 2.587 21.77 14.057 41.242 31.681 54.002v19.365c-.039.015-97.525 38.089-100.662 39.314-.042.017-.084.034-.126.051-21.04 8.659-43.685 33.471-43.685 67.487v71.068c0 11.365 9.245 20.609 20.608 20.609zm145.092-90.209-18.649-33.03c2.502 1.412 5.532 2.251 8.626 2.251 4.297 0 8.341-1.542 11.531-4.337l4.327 4.326zm37.313-73.553c-1.332 1.332-2.542 3.065-3.3 4.597h-15.482c-.745-1.507-1.957-3.255-3.3-4.597l-24.86-24.86c2.215-2.571 3.402-5.813 3.402-9.425v-11.309c10.552 4.559 21.848 6.718 33.487 6.718 11.149 0 21.756-2.345 31.375-6.545l.009 11.198c.01 3.562 1.267 6.872 3.441 9.45zm2.946 27.741-5.024 5.024h-18.187l-4.894-4.894 3.076-3.077c1.578-1.579 2.822-3.524 3.571-5.197h14.94c.759 1.695 1.992 3.618 3.57 5.197zm-13.284 90.945c-.338.593-1.16.592-1.492 0l-14.052-24.887 8.723-46.034h11.976l8.765 46.258zm25.349-44.915-5.875-31.007 4.451-4.451c3.21 2.873 7.308 4.461 11.668 4.461 3.065 0 5.994-.803 8.474-2.167zm23.663-91.231 22.836 8.844c-.806 1.427-.479.849-1.55 2.745l-32.916 32.917c-.974.974-2.607.973-3.581 0l-12.856-12.856c-.935-.935-.985-2.599 0-3.582zm29.96-105.861v-20.942c9.245-4.311 12.729-6.327 15.887-9.531 1.656 3.147 2.565 6.678 2.565 10.252 0 10.254-8.152 18.515-18.452 20.221zm70.111.643h-21.175c-2.724 0-4.711-2.568-4.02-5.21l6.885-26.269c4.998 1.755 10.439 1.758 15.444 0l6.885 26.269c.694 2.638-1.29 5.21-4.019 5.21zm-10.587-61.897c4.613 0 8.367 3.754 8.367 8.368 0 4.736-4.092 8.41-8.435 8.364-4.226-.036-8.3-3.558-8.3-8.364.001-4.614 3.755-8.368 8.368-8.368zm-7.5-13.758c-9.216 3.133-15.867 11.864-15.867 22.126 0 4.113 1.072 7.979 2.946 11.34l-5.658 21.586c.001-.087.007-.174.007-.26 0-9.32-3.681-18.452-10.006-25.272.227-1.435.357-2.897.357-4.383 0-7.01 0-55.885 0-62.13l28.222-14.14v51.133zm-262.283-67.311c-.991-.497-1.199-1.331-1.199-1.943s.208-1.447 1.199-1.943l124.104-62.181c4.031-2.019 8.844-2.02 12.875 0l113.014 56.624h-96.82c-3.151-9.485-12.102-16.347-22.632-16.347-13.149 0-23.848 10.698-23.848 23.847s10.698 23.847 23.848 23.847c10.529 0 19.48-6.862 22.632-16.347h96.819c-2.125 1.065-82.684 41.428-113.013 56.624-4.031 2.02-8.844 2.02-12.875 0-6.526-3.269-119.459-59.854-124.104-62.181zm139.388-1.943c0 4.878-3.969 8.847-8.847 8.847-4.879 0-8.848-3.969-8.848-8.847s3.969-8.847 8.848-8.847 8.847 3.969 8.847 8.847zm-88.563 144.284c-10.305-1.668-18.452-9.918-18.452-20.144 0-3.448 1.012-6.925 2.849-10.063 2.433 2.383 4.802 4.207 15.603 9.246zm-2.462-38.969c-3.838-2.069-6.341-6.285-6.341-10.924v-4.647c22.095 10.762 45.721 17.32 70.354 19.515 4.106.372 7.769-2.678 8.137-6.804.367-4.126-2.679-7.769-6.805-8.136-25.262-2.251-49.376-9.463-71.686-21.426v-33.117l75.363 37.76c8.177 4.094 18.002 4.161 26.312 0l75.363-37.76v33.117c-22.309 11.963-46.424 19.175-71.686 21.426-4.126.368-7.172 4.01-6.805 8.136.368 4.126 4.022 7.175 8.137 6.804 24.634-2.195 48.262-8.754 70.354-19.516v4.647c0 4.638-2.494 8.851-6.341 10.924-26.034 13.981-54.462 20.696-82.179 20.696-28.348.001-56.747-7.021-82.177-20.695zm17.462 44.711v-20.458c21.063 7.73 42.923 11.443 64.717 11.443 21.784 0 43.645-3.709 64.717-11.443v20.458c0 35.221-28.741 63.686-63.687 63.686-39.777-.001-65.747-30.959-65.747-63.686zm14.801 99.859 28.309 28.309c.962.962.949 2.633 0 3.582l-12.856 12.857c-.974.974-2.607.973-3.581 0l-33.177-33.176-1.503-2.663z"/></g></svg>