<?xml version="1.0" encoding="iso-8859-1"?>
<!-- Generator: Adobe Illustrator 19.0.0, SVG Export Plug-In . SVG Version: 6.00 Build 0)  -->
<svg version="1.1" id="Capa_1" xmlns="http://www.w3.org/2000/svg" xmlns:xlink="http://www.w3.org/1999/xlink" x="0px" y="0px"
	 viewBox="0 0 480 480" style="enable-background:new 0 0 480 480;" xml:space="preserve">
<g>
	<g>
		<path d="M359.584,469.472l-16-48c-1.088-3.266-4.142-5.469-7.584-5.472H144c-3.442,0.003-6.496,2.206-7.584,5.472l-16,48
			c-1.396,4.192,0.87,8.722,5.062,10.118c0.813,0.271,1.665,0.409,2.522,0.41h224c4.418-0.003,7.997-3.588,7.994-8.006
			C359.993,471.137,359.855,470.285,359.584,469.472z M139.104,464l10.664-32h180.464l10.664,32H139.104z"/>
	</g>
</g>
<g>
	<g>
		<path d="M304,256c-13.255,0-24,10.745-24,24s10.745,24,24,24s24-10.745,24-24S317.255,256,304,256z M304,288c-4.418,0-8-3.582-8-8
			s3.582-8,8-8s8,3.582,8,8S308.418,288,304,288z"/>
	</g>
</g>
<g>
	<g>
		<path d="M272,160h-64c-4.418,0-8,3.582-8,8v32c0,4.418,3.582,8,8,8h64c4.418,0,8-3.582,8-8v-32C280,163.582,276.418,160,272,160z
			 M264,192h-48v-16h48V192z"/>
	</g>
</g>
<g>
	<g>
		<path d="M472,0H8C3.582,0,0,3.582,0,8v384c0,4.418,3.582,8,8,8h464c4.418,0,8-3.582,8-8V8C480,3.582,476.418,0,472,0z M16,176h24
			v16H16V176z M80,384H16V208h32c4.418,0,8-3.582,8-8v-32c0-4.418-3.582-8-8-8H16v-16h64V384z M80,128H16v-16h64V128z M328,280v104
			H152V144h176V280z M328,128H152v-16h176V128z M464,192h-24v-16h24V192z M464,160h-32c-4.418,0-8,3.582-8,8v32c0,4.418,3.582,8,8,8
			h32v176h-64V144h64V160z M464,128h-64v-16h64V128z M464,96h-72c-4.418,0-8,3.582-8,8v280h-40V104c0-4.418-3.582-8-8-8H144
			c-4.418,0-8,3.582-8,8v280H96V104c0-4.418-3.582-8-8-8H16V16h448V96z"/>
	</g>
</g>
<g>
	<g>
		<rect x="48" y="272" width="16" height="16"/>
	</g>
</g>
<g>
	<g>
		<path d="M256,32h-32c-22.08,0.026-39.974,17.92-40,40c0,4.418,3.582,8,8,8h96c4.418,0,8-3.582,8-8
			C295.974,49.92,278.08,32.026,256,32z M201.368,64c3.403-9.582,12.464-15.988,22.632-16h32c10.168,0.012,19.229,6.418,22.632,16
			H201.368z"/>
	</g>
</g>
<g>
</g>
<g>
</g>
<g>
</g>
<g>
</g>
<g>
</g>
<g>
</g>
<g>
</g>
<g>
</g>
<g>
</g>
<g>
</g>
<g>
</g>
<g>
</g>
<g>
</g>
<g>
</g>
<g>
</g>
</svg>
